<svg width="192" height="192" viewBox="0 0 192 192" fill="none" xmlns="http://www.w3.org/2000/svg">
<rect width="192" height="192" rx="24" fill="#3b82f6"/>
<path d="M48 96C48 69.49 69.49 48 96 48C122.51 48 144 69.49 144 96C144 122.51 122.51 144 96 144C69.49 144 48 122.51 48 96Z" fill="white"/>
<path d="M72 84C72 80.6863 74.6863 78 78 78H114C117.314 78 120 80.6863 120 84V108C120 111.314 117.314 114 114 114H78C74.6863 114 72 111.314 72 108V84Z" fill="#3b82f6"/>
<path d="M84 90C84 88.8954 84.8954 88 86 88H106C107.105 88 108 88.8954 108 90V102C108 103.105 107.105 104 106 104H86C84.8954 104 84 103.105 84 102V90Z" fill="white"/>
</svg>