<svg width="512" height="512" viewBox="0 0 512 512" fill="none" xmlns="http://www.w3.org/2000/svg">
<rect width="512" height="512" rx="64" fill="#3b82f6"/>
<path d="M128 256C128 185.307 185.307 128 256 128C326.693 128 384 185.307 384 256C384 326.693 326.693 384 256 384C185.307 384 128 326.693 128 256Z" fill="white"/>
<path d="M192 224C192 215.163 199.163 208 208 208H304C312.837 208 320 215.163 320 224V288C320 296.837 312.837 304 304 304H208C199.163 304 192 296.837 192 288V224Z" fill="#3b82f6"/>
<path d="M224 240C224 235.582 227.582 232 232 232H280C284.418 232 288 235.582 288 240V272C288 276.418 284.418 280 280 280H232C227.582 280 224 276.418 224 272V240Z" fill="white"/>
</svg>